<svg width="200" height="169" viewBox="0 0 200 169" fill="none" xmlns="http://www.w3.org/2000/svg">
<path d="M199.117 103.046C192.597 91.4715 181.28 85.0535 167.583 83.9865C166.264 73.9009 162.042 64.4161 155.43 56.6865C153.604 65.1095 150.942 72.9165 147.251 77.0185C140.229 84.8245 121.466 94.9075 111.422 94.9075H110.934C106.279 94.7405 100.35 92.3225 94.216 88.1075C86.6358 83.1642 80.3056 76.53 75.7229 68.7265C74.3229 66.2575 73.472 62.6265 72.997 58.4515C49.758 55.1595 27.356 76.3655 29.748 96.6855C24.7047 94.9496 19.2898 94.5897 14.0612 95.6432C8.83265 96.6966 3.97952 99.1251 0.00195312 102.679C7.72819 102.888 15.1145 105.9 20.784 111.154C25.5064 115.595 28.508 121.561 29.259 128.001C29.259 128.001 34.389 119.167 45.823 122.625C48.3605 123.463 50.549 125.118 52.047 127.332C52.6742 128.213 53.2005 129.162 53.616 130.161H53.629C58.979 130.714 64.1229 134.071 63.2229 139.973C63.1095 140.702 62.9198 141.418 62.657 142.108C62.503 142.532 62.7979 141.799 63.9039 141.131C65.2981 140.338 66.9174 140.034 68.504 140.269C69.6474 140.311 70.7617 140.64 71.744 141.227C72.7263 141.814 73.5448 142.639 74.1239 143.626C74.1239 143.6 74.1109 143.562 74.0979 143.484C73.9286 142.712 73.6239 141.976 73.198 141.311C73.224 141.272 73.2619 141.247 73.2879 141.211C74.561 138.811 78.857 137.43 80.799 139.462C82.034 140.762 81.5829 137.919 81.2879 137.7C79.9119 131.013 86.278 123.142 98.122 124.955C98.341 124.981 98.701 125.045 99.151 125.135C99.151 125.161 99.138 125.174 99.138 125.199C98.638 127.231 98.4049 128.234 98.5849 128.131C98.7893 127.897 98.9545 127.633 99.074 127.347C99.203 127.077 99.3739 126.747 99.5629 126.331C99.6789 126.074 99.794 125.817 99.923 125.547C99.9343 125.502 99.9514 125.458 99.974 125.418C99.9859 125.382 100.003 125.348 100.025 125.318C100.269 124.752 100.514 124.135 100.771 123.479C103.536 116.342 106.494 104.523 107.021 99.5585C107.267 99.7089 107.465 99.9272 107.591 100.187C107.716 100.447 107.764 100.738 107.728 101.025C107.406 106.658 104.14 117.525 101.517 123.749C101.247 124.379 100.99 124.971 100.733 125.485C101.745 125.694 102.712 126.082 103.588 126.63C102.714 129.215 101.826 131.8 101.003 134.449C100.617 135.722 101.556 134.114 102.649 132.149C102.688 132.085 102.713 132.021 102.749 131.943C103.096 131.261 103.559 130.387 103.984 129.59C104.048 129.49 104.1 129.384 104.151 129.281C104.202 129.178 104.251 129.088 104.305 128.998C104.421 128.767 104.537 128.561 104.627 128.381C104.646 128.352 104.663 128.322 104.678 128.291C104.729 128.201 104.768 128.124 104.807 128.047C104.859 127.959 104.906 127.869 104.949 127.777C105.502 126.71 108.195 120.047 108.671 118.954C108.971 118.272 109.476 120.061 109.257 120.769C108.559 122.57 107.725 124.315 106.762 125.99V126.003C106.415 126.62 106.068 127.25 105.72 127.855C106.264 127.769 106.821 127.802 107.352 127.95C107.882 128.098 108.375 128.358 108.797 128.712C109.219 129.067 109.559 129.508 109.796 130.005C110.033 130.503 110.161 131.046 110.17 131.597C110.131 131.841 108.858 132.703 109.206 132.613C110.288 132.244 111.464 132.257 112.538 132.65C113.611 133.044 114.518 133.793 115.106 134.774C115.519 134.619 115.939 134.486 116.366 134.374C117.806 134.011 119.272 133.762 120.751 133.628C120.813 133.625 120.875 133.639 120.931 133.667C121.165 131.861 121.874 130.149 122.985 128.706C124.096 127.264 125.57 126.141 127.256 125.454C128.942 124.766 130.781 124.538 132.584 124.792C134.387 125.046 136.091 125.774 137.521 126.902C139.952 121.076 148.311 119.702 153.841 121.346C158.664 122.774 162.149 127.918 162.766 132.959C164.975 133.161 167.053 134.098 168.666 135.621C169.839 133.538 171.542 131.803 173.602 130.59C175.661 129.378 178.005 128.731 180.395 128.715C176.264 118.388 189.741 106.145 199.117 103.046Z" fill="#D1D3D4" fill-opacity="0.3"/>
<path d="M97.9351 166.977C97.6201 165.946 54.1851 164.656 50.1461 166.118C46.1071 167.58 55.3031 168.438 66.8211 168.438C75.6721 168.438 98.4231 168.573 97.9351 166.977Z" fill="#5C2D91"/>
<path d="M119.194 166.633C110.813 166.005 100.715 165.602 100.917 167.285C101.072 168.572 135.267 167.835 119.194 166.633Z" fill="#5C2D91"/>
<path d="M127.072 160.013C123.718 159.626 50.2049 158.793 42.1539 159.068C32.1539 159.411 26.8239 162.162 62.6649 161.818C97.5019 161.483 130.426 160.402 127.072 160.013Z" fill="#5C2D91"/>
<path d="M118.974 96.294C116.547 109.764 110.992 126.526 114.829 117.672C117.501 111.138 119.619 104.391 121.16 97.502C121.655 95.048 119.252 94.751 118.974 96.294Z" fill="#5C2D91"/>
<path d="M75.6938 76.8243C74.8208 75.2913 72.5067 75.8613 73.0417 77.5563C74.5657 82.3883 82.4417 87.5693 83.4647 86.8133C84.8907 85.7653 80.4858 85.2373 75.6938 76.8243Z" fill="#5C2D91"/>
<path d="M71.6618 83.0878C70.3878 81.8588 69.3908 83.9878 71.4398 85.9118C75.4398 89.6778 83.0638 92.1988 83.6958 91.3388C84.0508 90.8558 78.2518 89.4488 71.6618 83.0878Z" fill="#5C2D91"/>
<path d="M148.398 79.6653C149.483 78.4513 151.461 79.4143 150.65 80.8393C148.335 84.9033 140.225 88.0493 139.445 87.1683C138.362 85.9463 142.44 86.3223 148.398 79.6653Z" fill="#5C2D91"/>
<path d="M148.436 86.0168C149.915 85.0408 150.504 87.3168 148.136 88.8328C143.51 91.8008 135.556 92.8808 135.093 91.9208C134.834 91.3808 140.792 91.0608 148.436 86.0168Z" fill="#5C2D91"/>
<path d="M147.301 14.6693C144.915 14.0633 142.101 13.4483 139.101 12.8623C139.012 10.4623 138.89 8.08228 138.729 5.69028C140.717 4.89928 144.39 3.56427 146.796 4.23227C147.242 4.3032 147.647 4.53319 147.937 4.8797C148.226 5.22621 148.38 5.66583 148.371 6.11728C148.061 8.97728 147.702 11.8213 147.301 14.6693Z" fill="#00BAAB"/>
<path d="M135.232 12.1583C129.738 11.1883 123.885 10.3583 118.791 9.84828C114.299 9.42891 109.786 9.27465 105.276 9.38629C109.425 7.42729 116.12 4.00429 121.802 2.14729C125.438 0.959289 128.986 -0.491719 132.624 0.161281C133.493 0.318281 134.449 0.720286 134.533 1.70729C134.842 5.69329 135.084 8.83429 135.232 12.1583Z" fill="#00D1C5"/>
<path d="M75.3368 26.2167C75.3573 26.1064 75.3544 25.9929 75.3282 25.8837C75.302 25.7746 75.2531 25.6721 75.1847 25.5831C75.1164 25.4941 75.03 25.4204 74.9313 25.3669C74.8326 25.3135 74.7237 25.2814 74.6118 25.2727L70.9758 25.0787C70.4984 25.0417 70.0258 25.195 69.6612 25.5053C69.2966 25.8156 69.0695 26.2576 69.0298 26.7348C69.0298 26.7348 67.8978 32.4687 67.5958 36.1197C67.3745 39.9062 67.3638 43.7021 67.5638 47.4898C67.5241 47.9668 67.6747 48.4401 67.9826 48.8066C68.2906 49.173 68.731 49.4028 69.2078 49.4457L72.4908 49.6457C72.5991 49.6565 72.7085 49.6448 72.8122 49.6115C72.9158 49.5781 73.0114 49.5237 73.0932 49.4518C73.1749 49.3798 73.2409 49.2918 73.2871 49.1932C73.3333 49.0946 73.3587 48.9876 73.3618 48.8787C73.4128 47.0787 73.5278 40.0398 73.9338 35.6918C74.3218 31.5388 75.0278 27.8467 75.3368 26.2167Z" fill="#FF9F00"/>
<path d="M144.383 74.4317C137.757 81.7927 119.483 91.3317 111.065 91.0437C104.513 90.8187 92.8317 84.3638 83.3957 72.8088C74.2857 61.6528 76.8237 44.7897 76.8957 43.4087C77.0547 40.2707 77.4067 21.1458 81.1047 17.0087C84.8027 12.8717 107.094 11.6977 118.956 12.8667C129.799 13.9357 144.596 16.7227 149.314 18.7607C151.414 19.6677 153.894 20.3147 154.83 24.6327C155.766 28.9507 153.064 64.7857 144.383 74.4317Z" fill="url(#paint0_linear_1_263)"/>
<path d="M79.0756 66.8187C73.7176 57.3867 77.2906 21.0387 81.1036 17.0067C82.8656 15.1457 87.2856 14.1067 89.9466 13.6317C90.1699 13.5909 90.4 13.6083 90.6147 13.6822C90.8293 13.7562 91.0213 13.8842 91.172 14.054C91.3228 14.2237 91.4273 14.4295 91.4754 14.6514C91.5234 14.8733 91.5135 15.1038 91.4466 15.3207C89.3076 22.2937 83.8076 48.2907 84.8816 61.3597C85.3886 67.5227 87.9816 72.6227 91.4816 77.4727C93.7416 80.6067 96.5026 83.1667 97.0816 84.4897C97.1145 84.5691 97.121 84.6571 97.1001 84.7404C97.0791 84.8238 97.0319 84.8982 96.9654 84.9527C96.8988 85.0071 96.8165 85.0386 96.7306 85.0426C96.6448 85.0466 96.5599 85.0228 96.4886 84.9747C89.3575 80.3517 83.3968 74.1366 79.0756 66.8187Z" fill="#572A7B"/>
<path d="M104.812 128.032C104.773 128.109 104.735 128.186 104.683 128.276C104.711 128.197 104.745 128.119 104.783 128.044C104.799 128.045 104.799 128.045 104.812 128.032Z" fill="white"/>
<path d="M171.236 155.284C164.236 155.784 153.682 156.249 137.902 156.531C91.3729 157.367 79.7479 156.171 33.2189 156.171C31.6239 156.171 30.0679 156.158 28.5639 156.132C28.5317 156.12 28.4961 156.12 28.4639 156.132C26.2389 156.081 24.1039 156.003 22.1239 155.9C18.5619 155.707 15.4499 155.411 13.0699 155.077C13.0549 155.067 13.0369 155.063 13.0189 155.064C8.82689 154.464 6.8589 153.675 8.4659 152.878C8.65103 152.803 8.84607 152.756 9.04489 152.737C10.8839 152.428 16.4529 152.237 24.5929 152.158C24.9659 152.158 25.3389 152.145 25.7249 152.145C26.3549 152.145 26.9979 152.145 27.6669 152.132H28.5539C29.2099 152.132 29.8789 152.119 30.5599 152.119H31.2539C38.2239 152.08 46.4539 152.093 55.4829 152.132L62.0829 152.171C63.2149 152.184 64.3459 152.184 65.5039 152.197C66.3909 152.197 67.2919 152.21 68.1919 152.21C69.0919 152.21 70.0049 152.223 70.9179 152.223C71.8309 152.223 72.7439 152.249 73.6699 152.249L78.5179 152.288C81.5146 152.301 84.5495 152.327 87.6229 152.365H88.2149C90.0669 152.378 91.9149 152.391 93.7959 152.416L98.4389 152.455C99.9949 152.481 101.551 152.494 103.107 152.507C105.126 152.533 107.145 152.546 109.151 152.571C109.717 152.571 110.27 152.584 110.836 152.584C113.974 152.61 117.099 152.648 120.198 152.674H120.841C125.214 152.725 129.547 152.774 133.791 152.815C133.958 152.815 134.113 152.815 134.28 152.828C135.103 152.828 135.939 152.841 136.749 152.867C148.658 152.967 159.808 153.086 169.376 153.15C170.186 153.163 170.983 153.163 171.768 153.163C176.076 153.202 180.024 153.214 183.522 153.227C184.919 153.226 185.009 154.319 171.236 155.284Z" fill="#5C2D91"/>
<path d="M29.2568 127.995C28.6688 127.534 28.025 127.15 27.3408 126.851C27.5285 126.786 27.7227 126.743 27.9198 126.722C28.2775 126.672 28.6394 126.659 28.9998 126.683C29.1028 127.12 29.1798 127.557 29.2568 127.995Z" fill="white"/>
<path d="M107.591 122.515C108.958 119.214 110.127 115.835 111.091 112.394C111.567 110.709 108.853 110.028 108.3 112.094C106.551 118.524 106.2 119.463 104.236 125.263C103.415 124.617 102.499 124.101 101.522 123.733C101.252 124.363 100.995 124.955 100.737 125.469C101.749 125.679 102.715 126.067 103.592 126.614C102.718 129.199 101.83 131.784 101.007 134.433C100.621 135.706 101.56 134.099 102.653 132.133C102.692 132.069 102.717 132.004 102.753 131.927C103.1 131.245 103.563 130.371 103.988 129.574C104.052 129.474 104.104 129.368 104.155 129.265C104.206 129.162 104.255 129.072 104.309 128.982C104.425 128.75 104.54 128.545 104.631 128.365C104.65 128.337 104.667 128.306 104.682 128.275C104.733 128.185 104.772 128.108 104.811 128.031C104.863 127.944 104.91 127.854 104.953 127.761C105.506 126.694 106.353 125.125 107.553 122.604C107.565 122.58 107.578 122.541 107.591 122.515Z" fill="#632795"/>
<path d="M135.278 144.841C133.246 142.346 129.697 142.102 126.919 143.041C126.443 138.193 121.698 134.862 116.695 135.62C116.638 135.189 116.53 134.766 116.373 134.36C116.163 133.814 115.863 133.307 115.486 132.86C114.987 132.273 114.357 131.812 113.646 131.515C112.935 131.218 112.164 131.093 111.396 131.15C111.355 130.139 111.054 129.155 110.521 128.295C110.115 127.648 109.565 127.103 108.913 126.704C108.262 126.305 107.527 126.063 106.766 125.995C106.419 126.612 106.072 127.242 105.724 127.847C106.269 127.762 106.825 127.794 107.356 127.942C107.886 128.09 108.379 128.35 108.801 128.705C109.223 129.059 109.564 129.5 109.8 129.998C110.037 130.495 110.165 131.038 110.174 131.589C110.135 131.833 108.862 132.695 109.21 132.605C110.292 132.236 111.468 132.249 112.542 132.643C113.615 133.036 114.522 133.785 115.11 134.765C115.474 135.305 115.703 135.925 115.777 136.572C115.851 137.219 115.767 137.874 115.534 138.482C114.749 140.077 116.717 138.225 116.781 138.045C121.025 136.9 126.799 140.077 125.629 145.645C125.5 146.262 129.77 141.967 133.551 145.761C134.734 146.931 135.133 149.31 134.751 151.304C135.96 149.973 136.873 146.809 135.278 144.841Z" fill="#632795"/>
<path d="M107.024 99.5483C107.05 99.3043 107.075 99.0723 107.088 98.8663C107.229 96.9243 105.3 96.2043 104.94 98.1463C103.024 108.717 100.863 118.118 99.64 123.134C98.2629 122.775 96.855 122.547 95.435 122.452C97.1686 116.382 98.5894 110.226 99.692 104.01C99.7141 103.841 99.7019 103.668 99.6561 103.503C99.6104 103.338 99.532 103.184 99.4257 103.05C99.3193 102.916 99.1871 102.804 99.0369 102.722C98.8867 102.64 98.7216 102.589 98.5512 102.572C98.3809 102.554 98.2088 102.572 98.0453 102.622C97.8817 102.673 97.7299 102.755 97.5988 102.865C97.4678 102.976 97.3602 103.111 97.2824 103.264C97.2047 103.416 97.1582 103.583 97.146 103.753C96.066 110.942 93.725 122.353 93.725 122.353C93.725 122.353 79.489 123.575 79.193 136.409C77.7935 136.167 76.3543 136.318 75.0352 136.844C73.7162 137.371 72.569 138.253 71.721 139.392C70.9668 138.907 70.1195 138.586 69.2336 138.448C68.3477 138.31 67.4427 138.359 66.577 138.592C66.256 132.329 60.018 127.802 53.55 127.352C53.051 127.312 52.55 127.303 52.05 127.326C45.504 127.558 40.013 132.38 41.35 139.132C41.05 139.093 35.601 137.769 34.264 142.386C32.219 141.627 30.406 141.524 28.875 142.36C28.6219 142.493 28.381 142.648 28.155 142.823C27.0204 143.802 26.1708 145.069 25.6956 146.49C25.2205 147.912 25.1373 149.435 25.455 150.899C25.519 151.32 25.6092 151.737 25.725 152.146C26.355 152.146 26.998 152.146 27.667 152.133C27.3197 151.265 27.1511 150.336 27.171 149.402C27.1909 148.467 27.3991 147.546 27.783 146.693C28.1318 145.853 28.7075 145.127 29.4457 144.595C30.184 144.064 31.0556 143.748 31.963 143.684C33.789 143.684 35.307 144.597 35.663 145.384C35.714 145.484 35.92 145.693 35.676 144.651C35.432 143.609 35.496 141.23 39.276 140.536C40.819 140.236 42.748 140.626 43.263 142.555C43.726 144.265 43.97 142.195 43.263 139.919C41.038 132.627 47.456 129.528 53.616 130.158H53.629C58.979 130.711 64.123 134.068 63.223 139.971C63.1095 140.701 62.9199 141.416 62.657 142.106C62.503 142.53 62.798 141.797 63.904 141.129C65.2981 140.337 66.9174 140.033 68.504 140.267C69.6474 140.309 70.7617 140.639 71.744 141.226C72.7263 141.813 73.5448 142.638 74.124 143.624C74.124 143.598 74.111 143.56 74.098 143.482C73.9287 142.711 73.624 141.975 73.198 141.309C73.224 141.27 73.262 141.245 73.288 141.209C74.561 138.809 78.857 137.428 80.798 139.46C82.033 140.76 81.582 137.917 81.287 137.698C79.911 131.011 86.277 123.14 98.121 124.953C98.34 124.979 98.7 125.043 99.15 125.133C99.15 125.159 99.137 125.172 99.137 125.197C98.637 127.229 98.404 128.232 98.584 128.129C98.7883 127.896 98.9535 127.631 99.073 127.345C99.202 127.075 99.373 126.745 99.562 126.329C99.678 126.072 99.793 125.815 99.922 125.545C99.9333 125.5 99.9504 125.457 99.973 125.416C99.985 125.381 100.002 125.347 100.024 125.316C100.268 124.75 100.513 124.133 100.77 123.477C103.539 116.33 106.497 104.512 107.024 99.5483Z" fill="#632795"/>
<path d="M21.0931 142.964C20.7827 142.598 20.3768 142.325 19.9206 142.175C19.4643 142.025 18.9754 142.004 18.5081 142.115C18.0489 142.203 17.6154 142.393 17.24 142.672C16.8647 142.951 16.5573 143.311 16.3408 143.725C16.1242 144.139 16.0042 144.597 15.9898 145.065C15.9753 145.532 16.0667 145.996 16.2571 146.423C16.9641 148.069 19.3051 149.098 20.7321 147.645C21.6831 146.668 22.2101 144.198 21.0931 142.964ZM19.2151 146.464C19.0465 146.501 18.8719 146.501 18.7033 146.464C18.5347 146.427 18.3761 146.355 18.2381 146.251C18.1002 146.147 17.9863 146.015 17.9042 145.863C17.822 145.711 17.7736 145.544 17.7621 145.371C17.7575 145.264 17.7663 145.156 17.7881 145.05C17.859 145.039 17.9262 145.01 17.9842 144.968C18.0422 144.926 18.0894 144.87 18.1221 144.806C18.1984 144.615 18.3171 144.445 18.4691 144.306C18.4992 144.271 18.525 144.232 18.5461 144.19C18.7817 144.149 19.0236 144.162 19.2531 144.229C19.4159 144.257 19.5622 144.345 19.6625 144.476C19.7627 144.608 19.8094 144.772 19.7931 144.936C19.8051 145.472 19.8311 146.256 19.2141 146.462L19.2151 146.464Z" fill="#632795"/>
<path d="M31.2632 127.725C30.9483 127.392 30.5671 127.129 30.1442 126.953C29.7831 126.792 29.3945 126.7 28.9992 126.683C28.6388 126.659 28.2769 126.672 27.9192 126.722C27.722 126.744 27.5279 126.787 27.3402 126.851C26.8375 126.987 26.3704 127.23 25.9714 127.565C25.5723 127.899 25.2509 128.316 25.0293 128.787C24.8078 129.259 24.6915 129.772 24.6885 130.293C24.6856 130.814 24.796 131.329 25.0122 131.802C25.4381 132.647 26.1438 133.318 27.009 133.701C27.8742 134.084 28.8454 134.155 29.7572 133.902C30.1373 133.754 30.4863 133.536 30.7862 133.259C32.0092 132.1 32.7042 129.191 31.2632 127.725ZM29.6432 131.225V131.238C29.5589 131.392 29.4433 131.527 29.3037 131.633C29.1642 131.739 29.0039 131.815 28.8332 131.855C28.6243 131.911 28.4059 131.921 28.1928 131.884C27.9797 131.848 27.7771 131.766 27.5988 131.644C27.4204 131.522 27.2705 131.362 27.1595 131.177C27.0484 130.991 26.9787 130.784 26.9552 130.569C26.9729 130.285 27.0706 130.013 27.237 129.782C27.4033 129.551 27.6316 129.373 27.8953 129.266C28.159 129.16 28.4474 129.131 28.7272 129.181C29.0069 129.232 29.2666 129.361 29.4762 129.553C29.6845 129.774 29.8138 130.058 29.844 130.36C29.8742 130.662 29.8036 130.966 29.6432 131.223V131.225Z" fill="#632795"/>
<path d="M128.245 120.181C126.778 120.816 125.227 119.44 125.098 118.081C125.07 117.719 125.128 117.356 125.267 117.022C125.407 116.687 125.623 116.39 125.899 116.154C126.175 115.919 126.502 115.752 126.855 115.668C127.207 115.583 127.575 115.583 127.927 115.668C128.314 115.711 128.683 115.855 128.996 116.086C129.31 116.317 129.557 116.627 129.712 116.984C130.266 118.162 129.229 119.766 128.245 120.181Z" fill="#632795"/>
<path d="M60.0533 120.754C59.8159 120.932 59.5417 121.054 59.2508 121.112C58.96 121.17 58.6599 121.163 58.3723 121.09C58.0848 121.017 57.8172 120.881 57.589 120.692C57.3608 120.502 57.1778 120.264 57.0533 119.995C56.9321 119.725 56.8763 119.431 56.8903 119.136C56.9043 118.841 56.9878 118.553 57.1339 118.296C57.2801 118.039 57.4848 117.82 57.7315 117.658C57.9781 117.495 58.2597 117.392 58.5533 117.359C58.8635 117.287 59.187 117.298 59.4916 117.391C59.7962 117.483 60.0713 117.654 60.2893 117.886C60.5933 118.316 60.7363 118.838 60.6931 119.363C60.6499 119.887 60.4234 120.38 60.0533 120.754Z" fill="#5C2D91"/>
<path d="M74.642 126.386C74.2268 125.953 73.7063 125.636 73.1315 125.464C72.5568 125.293 71.9474 125.274 71.363 125.409C70.8046 125.47 70.2686 125.663 69.7987 125.971C69.3287 126.279 68.9381 126.693 68.6585 127.18C68.379 127.668 68.2185 128.214 68.1901 128.775C68.1617 129.336 68.2662 129.896 68.495 130.409C69.395 132.325 72.366 133.509 74.179 131.824C75.388 130.694 76.069 127.827 74.642 126.386ZM72.263 130.463C72.0568 130.516 71.8415 130.524 71.6318 130.487C71.4221 130.45 71.2228 130.369 71.0473 130.248C70.8718 130.127 70.7241 129.971 70.6144 129.788C70.5046 129.605 70.4353 129.402 70.411 129.19C70.462 127.454 72.111 127.801 72.311 127.852C72.5898 127.942 72.8322 128.119 73.0025 128.357C73.1727 128.596 73.2618 128.882 73.2564 129.175C73.251 129.468 73.1515 129.752 72.9726 129.983C72.7937 130.215 72.5449 130.383 72.263 130.463Z" fill="#632795"/>
<defs>
<linearGradient id="paint0_linear_1_263" x1="92.2152" y1="33.9781" x2="261.951" y2="165.944" gradientUnits="userSpaceOnUse">
<stop stop-color="#632795"/>
<stop offset="1" stop-color="#FFA000"/>
</linearGradient>
</defs>
</svg>
